<svg width="217" height="250" viewBox="0 0 217 250" fill="none" xmlns="http://www.w3.org/2000/svg">
<path d="M133.5 230C122.5 225.5 109.5 226 103 228C85.6835 233.328 67.5 192.5 63 167C64.478 175.375 72.2975 181.685 80 180C96 176.5 89.5 161.5 103 156.694C113 154.5 112.052 161.255 121.368 160.5C128.005 161.132 130.314 153.825 139 157.5C152 163 151.784 182.618 168.779 182.618C175.258 182.618 175.717 181.5 177.629 176.5C169.152 199.171 151.411 237.463 133.5 230Z" fill="#4D8CD2"/>
<path d="M172.5 107.5C175 113.5 181.106 136 181.106 160.5C181.106 167 177.629 176.5 177.629 176.5C175.717 181.5 175.258 182.618 168.779 182.618C151.784 182.618 152 163 139 157.5C130.314 153.825 128.005 161.132 121.368 160.5L123.896 83.6667C123.896 83.6667 141.597 82.4021 147.602 81.1376C155.504 85.2474 160 90 164.986 96.3122L172.5 107.5Z" fill="white"/>
<path d="M64 121.5L61.5 147.5C61.5 151 60.4412 152.5 63 167C64.478 175.375 72.2975 181.685 80 180C96 176.5 89.5 161.5 103 156.694C113 154.5 112.052 161.255 121.368 160.5L123.896 83.6667C123.896 83.6667 109.989 82.7183 98.2943 77.9762C98.2943 77.9762 91.559 81.2845 83.9622 89.9894C77.7284 97.1325 67 104.5 64 121.5Z" fill="white"/>
<path d="M106.512 63.75C107.144 63.75 103.984 64.3823 103.984 70.0728C98.2943 69.1243 96.0817 74.1825 98.2943 77.9762C109.989 82.7183 123.896 83.6667 123.896 83.6667C123.896 83.6667 141.597 82.4021 147.602 81.1376C154.24 75.7632 148.866 71.6535 145.39 71.0212C143.493 69.4405 145.074 66.9114 140.332 65.3307C140.332 65.3307 140.016 57.1111 136.223 54.2659C134.643 52.6852 127.373 50.4722 125.161 50.4722C122.948 50.4722 116.627 51.4207 113.782 53.0013C110.937 54.582 109.989 59.9564 109.989 61.8532C109.989 63.75 106.512 63.75 106.512 63.75Z" fill="#4D8CD2"/>
<path d="M6.64446 150.729C3.34993 150.373 0.390639 152.755 0.0347114 156.05C-0.321216 159.345 2.061 162.304 5.35554 162.66L6.64446 150.729ZM30.97 151.636L25.6531 148.856C25.6112 148.936 25.5711 149.017 25.5328 149.099L30.97 151.636ZM44.5 128L40.1228 123.896C40.0619 123.961 40.0024 124.028 39.9445 124.095L44.5 128ZM103.984 70.0728L102.997 75.9911C104.737 76.2811 106.516 75.791 107.862 74.6509C109.208 73.5109 109.984 71.8365 109.984 70.0728H103.984ZM106.512 63.75L102.115 67.8323C103.25 69.0552 104.844 69.75 106.512 69.75V63.75ZM98.2943 54.8982L93.4685 58.4636C93.6016 58.6438 93.7447 58.8163 93.8971 58.9805L98.2943 54.8982ZM77.6036 14.5291L81.5887 10.0438C81.4487 9.91931 81.3028 9.80149 81.1517 9.69068L77.6036 14.5291ZM43 0.500013C39.6863 0.500018 37 3.18631 37 6.50002C37 9.81373 39.6863 12.5 43 12.5L43 0.500013ZM21.6443 202.56C18.341 202.823 15.8761 205.713 16.1388 209.017C16.4014 212.32 19.2922 214.785 22.5955 214.522L21.6443 202.56ZM42.6131 195.263L48.5863 195.83C48.6353 195.313 48.617 194.792 48.5321 194.281L42.6131 195.263ZM47 156.694L52.4175 159.273C52.4757 159.151 52.5298 159.027 52.5797 158.901L47 156.694ZM133.5 230L135.808 224.462C135.796 224.457 135.784 224.452 135.772 224.447L133.5 230ZM192.5 167.5L186.882 169.607L192.5 167.5ZM181.106 219.29L175.346 217.612C175.294 217.789 175.251 217.969 175.216 218.15L181.106 219.29ZM191.998 245.294C193.265 248.356 196.774 249.811 199.836 248.544C202.898 247.277 204.353 243.768 203.087 240.706L191.998 245.294ZM189.008 105.5L183.205 107.023C183.215 107.063 183.226 107.104 183.238 107.144L189.008 105.5ZM192 116L186.23 117.644C186.269 117.781 186.312 117.916 186.361 118.05L192 116ZM204.442 121.598C207.534 120.406 209.074 116.933 207.882 113.841C206.69 110.75 203.217 109.21 200.125 110.402L204.442 121.598ZM183 72.5L177.221 70.8878L183 72.5ZM192 61L188.938 55.84C188.93 55.8451 188.921 55.8502 188.913 55.8553L192 61ZM205.345 60.0582C208.195 58.3672 209.134 54.6862 207.443 51.8364C205.752 48.9866 202.071 48.0472 199.222 49.7382L205.345 60.0582ZM145.39 71.0212L141.548 75.6301C142.344 76.2932 143.297 76.7391 144.316 76.9244L145.39 71.0212ZM140.332 65.3307L134.337 65.5613C134.433 68.0573 136.065 70.2327 138.435 71.0227L140.332 65.3307ZM150.131 54.8982L145.456 51.1375L150.131 54.8982ZM177.629 22L173.717 17.4508C173.612 17.5414 173.51 17.6356 173.411 17.7333L177.629 22ZM209.787 19.4575C213.077 19.8512 216.064 17.503 216.458 14.2128C216.851 10.9225 214.503 7.93615 211.213 7.5425L209.787 19.4575ZM136.223 54.2659L131.98 58.5081C132.181 58.7089 132.396 58.8952 132.623 59.0656L136.223 54.2659ZM103 228L104.765 233.735L103 228ZM67 82.4021L62.1912 78.8138C61.1017 80.2739 60.7346 82.15 61.1934 83.913C61.6521 85.6761 62.8871 87.1353 64.5501 87.8792L67 82.4021ZM74.7847 71.9696L79.5935 75.5579C81.1782 73.4341 81.1822 70.5223 79.6032 68.3943L74.7847 71.9696ZM69.6086 54.9247C67.634 52.2636 63.876 51.707 61.2149 53.6816C58.5537 55.6562 57.9972 59.4142 59.9718 62.0753L69.6086 54.9247ZM139 157.5L141.338 151.974L139 157.5ZM177.629 176.5L183.249 178.602C183.254 178.588 183.259 178.575 183.264 178.562L177.629 176.5ZM63 167L68.9087 165.957L63 167ZM103 156.694L101.714 150.834C101.468 150.888 101.225 150.957 100.988 151.042L103 156.694ZM80 180L78.7178 174.139L80 180ZM5.35554 162.66C7.86512 162.931 10.2002 163.373 12.8393 163.807C15.3164 164.215 18.12 164.626 20.8597 164.567C23.6799 164.506 26.7709 163.948 29.6766 162.153C32.6066 160.344 34.7992 157.62 36.4072 154.173L25.5328 149.099C24.6767 150.934 23.8806 151.629 23.3723 151.943C22.8398 152.272 22.0432 152.539 20.6014 152.57C19.0792 152.602 17.2467 152.371 14.7885 151.967C12.4924 151.589 9.59309 151.048 6.64446 150.729L5.35554 162.66ZM30.97 151.636C36.2869 154.417 36.2869 154.417 36.2869 154.417C36.287 154.417 36.287 154.416 36.2872 154.416C36.2874 154.416 36.2878 154.415 36.2883 154.414C36.2895 154.412 36.2912 154.408 36.2936 154.404C36.2983 154.395 36.3055 154.381 36.3152 154.363C36.3345 154.326 36.3635 154.27 36.4017 154.198C36.4781 154.052 36.5911 153.837 36.7363 153.562C37.0267 153.011 37.4459 152.218 37.9585 151.255C38.9846 149.327 40.3812 146.726 41.8681 144.021C43.3589 141.308 44.9214 138.527 46.2833 136.226C47.7506 133.748 48.7084 132.31 49.0555 131.905L39.9445 124.095C38.7916 125.44 37.3082 127.831 35.9573 130.113C34.5011 132.573 32.8686 135.481 31.352 138.24C29.8313 141.007 28.4079 143.658 27.3659 145.616C26.8445 146.595 26.4175 147.403 26.1204 147.967C25.9718 148.249 25.8557 148.47 25.7763 148.621C25.7367 148.696 25.7062 148.755 25.6855 148.794C25.6751 148.814 25.6672 148.829 25.6618 148.839C25.6591 148.844 25.657 148.848 25.6556 148.851C25.6548 148.853 25.6543 148.854 25.6539 148.854C25.6537 148.855 25.6535 148.855 25.6534 148.855C25.6532 148.856 25.6531 148.856 30.97 151.636ZM48.8772 132.104C51.4958 129.311 54.8226 128.004 57.7888 127.472C59.2606 127.208 60.55 127.154 61.4531 127.181C61.9075 127.195 62.2106 127.228 62.3484 127.248C62.4216 127.258 62.3931 127.257 62.2883 127.232C62.2354 127.219 62.1187 127.189 61.9603 127.135C61.8334 127.092 61.5042 126.976 61.1005 126.753L66.8995 116.247C66.1152 115.814 65.3743 115.633 65.1459 115.577C64.7772 115.487 64.4116 115.422 64.0814 115.373C63.4122 115.276 62.643 115.212 61.8136 115.187C60.1491 115.137 58.0252 115.238 55.6705 115.66C50.9836 116.501 45.0042 118.689 40.1228 123.896L48.8772 132.104ZM109.984 70.0728C109.984 68.4276 110.405 68.2392 110.129 68.5765C110.085 68.63 110.033 68.6844 109.974 68.7362C109.915 68.789 109.867 68.8229 109.872 68.8198C109.877 68.8159 109.884 68.811 109.907 68.795C109.92 68.7854 109.969 68.7513 110.018 68.716C110.063 68.6841 110.171 68.606 110.298 68.5047C110.392 68.4298 110.691 68.1902 111.016 67.8334C111.129 67.7103 112.326 66.4827 112.557 64.4477C112.703 63.1634 112.44 61.7442 111.621 60.4884C110.88 59.35 109.939 58.7383 109.356 58.4353C108.317 57.8949 107.38 57.8058 107.211 57.7874C106.886 57.7519 106.624 57.75 106.512 57.75V69.75C106.44 69.75 106.21 69.7494 105.91 69.7166C105.767 69.701 104.847 69.6161 103.82 69.0817C103.243 68.7818 102.306 68.1735 101.567 67.039C100.752 65.7872 100.489 64.3724 100.634 63.0929C100.763 61.9569 101.185 61.1305 101.443 60.6995C101.715 60.2439 101.992 59.9202 102.154 59.7432C102.466 59.4006 102.747 59.1775 102.817 59.1217C102.92 59.0395 102.999 58.9831 103.009 58.9757C103.024 58.965 103.034 58.9583 103.004 58.9792C102.983 58.9937 102.942 59.0225 102.896 59.0556C102.448 59.3754 101.654 59.9841 100.841 60.9785C99.1427 63.0545 97.9836 66.0274 97.9836 70.0728H109.984ZM110.909 59.6677L102.691 50.8159L93.8971 58.9805L102.115 67.8323L110.909 59.6677ZM103.12 51.3327C96.6865 42.6251 95.5015 36.8412 94.0407 30.9997C93.2778 27.9491 92.3667 24.5353 90.4807 20.9553C88.5669 17.3227 85.8012 13.7865 81.5887 10.0438L73.6184 19.0145C76.9333 21.9597 78.7261 24.3889 79.8639 26.5485C81.0293 28.7607 81.6627 30.966 82.3992 33.9109C83.937 40.0604 85.57 47.773 93.4685 58.4636L103.12 51.3327ZM81.1517 9.69068C73.0756 3.76814 66.8517 1.22719 60.4791 0.435346C57.4314 0.0566397 54.5345 0.102803 51.7564 0.212334C48.8821 0.325653 46.2175 0.500008 43 0.500013L43 12.5C46.5325 12.5 49.6933 12.303 52.2291 12.203C54.861 12.0993 56.9588 12.0902 58.9994 12.3438C62.8037 12.8165 67.1316 14.2901 74.0554 19.3675L81.1517 9.69068ZM22.1199 208.541C22.5955 214.522 22.5973 214.522 22.5992 214.522C22.5999 214.522 22.6019 214.522 22.6034 214.521C22.6063 214.521 22.6095 214.521 22.6131 214.521C22.6201 214.52 22.6284 214.519 22.6378 214.519C22.6567 214.517 22.6804 214.515 22.7086 214.513C22.765 214.507 22.8399 214.501 22.9319 214.491C23.116 214.473 23.3695 214.446 23.683 214.408C24.3088 214.331 25.1806 214.209 26.2211 214.023C28.2794 213.655 31.108 213.017 34.0393 211.928C39.3908 209.939 47.6771 205.417 48.5863 195.83L36.6399 194.697C36.436 196.847 34.4757 198.963 29.8589 200.679C27.806 201.442 25.72 201.923 24.1097 202.21C23.316 202.352 22.665 202.443 22.2266 202.496C22.008 202.523 21.8441 202.54 21.7437 202.55C21.6935 202.555 21.6594 202.558 21.6424 202.56C21.634 202.561 21.6298 202.561 21.63 202.561C21.6302 202.561 21.6314 202.561 21.6338 202.561C21.635 202.561 21.6364 202.561 21.6382 202.56C21.6391 202.56 21.6406 202.56 21.641 202.56C21.6426 202.56 21.6443 202.56 22.1199 208.541ZM42.6131 195.263C48.5321 194.281 48.5323 194.282 48.5325 194.283C48.5325 194.283 48.5327 194.285 48.5328 194.285C48.533 194.286 48.5332 194.287 48.5333 194.288C48.5334 194.289 48.5334 194.289 48.5332 194.287C48.5327 194.284 48.5314 194.276 48.5293 194.263C48.5252 194.237 48.518 194.191 48.5082 194.125C48.4885 193.994 48.4584 193.786 48.4215 193.507C48.3477 192.95 48.2468 192.112 48.1479 191.046C47.9494 188.908 47.7609 185.877 47.806 182.358C47.8978 175.208 48.9507 166.556 52.4175 159.273L41.5825 154.116C37.0493 163.639 35.9088 174.271 35.807 182.204C35.7554 186.226 35.9702 189.687 36.1992 192.155C36.314 193.391 36.4329 194.385 36.5254 195.083C36.5717 195.432 36.6114 195.708 36.6408 195.904C36.6554 196.002 36.6675 196.08 36.6766 196.137C36.6811 196.166 36.6849 196.189 36.6878 196.208C36.6893 196.217 36.6905 196.224 36.6916 196.231C36.6921 196.234 36.6926 196.237 36.693 196.239C36.6932 196.241 36.6935 196.242 36.6936 196.243C36.6938 196.244 36.6941 196.246 42.6131 195.263ZM182.586 166.315C183.584 166.061 184.22 166.266 184.86 166.744C185.677 167.355 186.445 168.44 186.882 169.607L198.118 165.393C197.055 162.56 195.073 159.395 192.042 157.131C188.834 154.734 184.522 153.439 179.626 154.685L182.586 166.315ZM186.882 169.607C187.223 170.515 187.454 172.157 187.165 174.987C186.882 177.762 186.155 181.194 185.028 185.41C182.709 194.082 179.228 204.28 175.346 217.612L186.867 220.967C190.485 208.544 194.312 197.144 196.621 188.509C197.807 184.071 198.724 179.922 199.103 176.205C199.477 172.543 199.389 168.782 198.118 165.393L186.882 169.607ZM175.216 218.15C173.574 226.634 179.426 232.397 183.132 235.801C185.387 237.872 187.089 239.254 188.842 241.026C190.48 242.681 191.482 244.045 191.998 245.294L203.087 240.706C201.707 237.371 199.468 234.704 197.373 232.586C195.392 230.584 192.867 228.449 191.25 226.963C187.212 223.254 186.742 221.746 186.997 220.43L175.216 218.15ZM187.106 160.5C187.106 135.249 180.858 111.96 178.038 105.192L166.962 109.808C169.142 115.04 175.106 136.751 175.106 160.5H187.106ZM174.901 112.999C177.486 111.87 180.925 110.928 183.682 110.547C185.099 110.351 185.969 110.357 186.311 110.399C186.502 110.422 186.165 110.415 185.612 110.127C185 109.81 183.695 108.892 183.205 107.023L194.812 103.977C194.168 101.524 192.426 100.145 191.145 99.4793C189.921 98.8433 188.68 98.6002 187.782 98.4892C185.944 98.2621 183.894 98.4036 182.039 98.6598C178.252 99.1831 173.744 100.41 170.099 102.001L174.901 112.999ZM183.238 107.144L186.23 117.644L197.77 114.356L194.778 103.856L183.238 107.144ZM186.361 118.05C187.753 121.878 191.186 123.072 193.196 123.392C195.212 123.713 197.24 123.468 198.68 123.209C200.221 122.931 201.648 122.529 202.652 122.214C203.164 122.053 203.591 121.907 203.898 121.798C204.052 121.743 204.177 121.698 204.269 121.664C204.315 121.647 204.352 121.632 204.381 121.621C204.396 121.616 204.408 121.611 204.418 121.607C204.423 121.605 204.428 121.604 204.432 121.602C204.434 121.601 204.436 121.601 204.437 121.6C204.438 121.6 204.439 121.599 204.44 121.599C204.441 121.599 204.442 121.598 202.283 116C200.125 110.402 200.126 110.401 200.127 110.401C200.127 110.401 200.128 110.4 200.129 110.4C200.13 110.4 200.131 110.399 200.132 110.399C200.133 110.398 200.135 110.398 200.135 110.398C200.137 110.397 200.136 110.397 200.134 110.398C200.128 110.4 200.115 110.405 200.095 110.413C200.054 110.428 199.984 110.454 199.889 110.487C199.697 110.555 199.41 110.654 199.057 110.765C198.33 110.993 197.423 111.242 196.552 111.399C196.121 111.477 195.755 111.521 195.465 111.538C195.159 111.556 195.046 111.536 195.084 111.542C195.103 111.545 195.516 111.607 196.063 111.96C196.698 112.371 197.313 113.053 197.639 113.95L186.361 118.05ZM177.481 104.155L169.967 92.967L160.005 99.6573L167.519 110.845L177.481 104.155ZM164.986 96.3122C167.96 101.524 167.96 101.523 167.961 101.523C167.961 101.523 167.962 101.523 167.962 101.522C167.963 101.522 167.964 101.521 167.965 101.521C167.967 101.519 167.97 101.518 167.973 101.516C167.98 101.512 167.989 101.507 168 101.501C168.022 101.488 168.052 101.471 168.091 101.448C168.168 101.404 168.278 101.34 168.416 101.259C168.694 101.097 169.087 100.864 169.568 100.573C170.527 99.9939 171.847 99.1762 173.29 98.223C175.997 96.4359 179.768 93.7673 182.112 91.1322L173.147 83.1561C171.96 84.4895 169.41 86.4048 166.678 88.2096C165.401 89.0524 164.223 89.7826 163.363 90.3022C162.934 90.5612 162.588 90.7656 162.353 90.9032C162.236 90.9719 162.146 91.0238 162.088 91.0573C162.059 91.0741 162.038 91.0862 162.026 91.0935C162.019 91.0972 162.015 91.0996 162.013 91.1009C162.012 91.1015 162.011 91.1018 162.011 91.1018C162.011 91.1018 162.011 91.1017 162.012 91.1015C162.012 91.1015 162.012 91.1013 162.012 91.1012C162.012 91.1011 162.013 91.1008 164.986 96.3122ZM182.112 91.1322C184.765 88.1508 186.101 84.5934 186.937 81.6715C187.362 80.1848 187.696 78.7121 187.981 77.4453C188.281 76.1146 188.516 75.0568 188.779 74.1123L177.221 70.8878C176.856 72.1932 176.548 73.5949 176.274 74.8118C175.986 76.0926 175.718 77.2556 175.399 78.3714C174.746 80.6545 174.025 82.1692 173.147 83.1561L182.112 91.1322ZM188.779 74.1123C190.134 69.2557 193.821 66.9048 195.087 66.1447L188.913 55.8553C187.018 56.992 179.866 61.4057 177.221 70.8878L188.779 74.1123ZM195.062 66.16L205.345 60.0582L199.222 49.7382L188.938 55.84L195.062 66.16ZM169.695 92.5929C164.452 85.9561 159.334 80.4761 150.371 75.8145L144.834 86.4607C151.675 90.0186 155.548 94.0439 160.278 100.031L169.695 92.5929ZM151.378 85.8007C153.575 84.022 155.394 81.863 156.25 79.2388C157.166 76.4288 156.771 73.7049 155.583 71.478C153.502 67.5752 149.352 65.6434 146.463 65.118L144.316 76.9244C144.334 76.9276 144.423 76.9472 144.561 77.0013C144.695 77.0541 144.829 77.1216 144.945 77.1942C145.062 77.2678 145.122 77.3223 145.135 77.3358C145.149 77.3497 145.081 77.2862 144.994 77.1242C144.902 76.9513 144.8 76.6836 144.766 76.3435C144.731 75.9946 144.781 75.704 144.841 75.5182C144.897 75.3485 144.931 75.3565 144.794 75.5348C144.654 75.7173 144.365 76.0385 143.827 76.4745L151.378 85.8007ZM149.231 66.4122C149.779 66.8689 150.009 67.39 150.041 67.4693C150.042 67.4709 150.032 67.4474 150.008 67.3769C149.98 67.2957 149.956 67.22 149.905 67.0666C149.821 66.8108 149.668 66.345 149.454 65.8385C148.976 64.7083 148.202 63.3805 146.828 62.1669C145.517 61.0097 143.95 60.2122 142.23 59.6387L138.435 71.0227C139.085 71.2396 139.099 71.351 138.885 71.1619C138.607 70.9165 138.445 70.6161 138.402 70.5134C138.4 70.508 138.406 70.5239 138.425 70.575C138.444 70.6301 138.468 70.6995 138.507 70.819C138.567 71.0017 138.712 71.4548 138.891 71.9056C139.308 72.9531 140.052 74.3831 141.548 75.6301L149.231 66.4122ZM140.332 65.3307C144.557 69.5915 144.557 69.5914 144.557 69.5912C144.557 69.5911 144.557 69.591 144.558 69.5908C144.558 69.5904 144.558 69.59 144.559 69.5894C144.56 69.5883 144.562 69.5867 144.564 69.5848C144.568 69.5809 144.573 69.5753 144.58 69.5681C144.595 69.5538 144.616 69.533 144.643 69.5061C144.697 69.4522 144.776 69.3739 144.876 69.2734C145.077 69.0726 145.366 68.7834 145.721 68.4259C146.43 67.7116 147.406 66.7206 148.476 65.6146C150.555 63.4639 153.186 60.6732 154.806 58.6589L145.456 51.1375C144.224 52.6689 141.955 55.0945 139.848 57.2737C138.825 58.3325 137.886 59.2849 137.204 59.9727C136.863 60.3161 136.587 60.5927 136.397 60.7823C136.302 60.8771 136.228 60.9501 136.179 60.9989C136.155 61.0233 136.137 61.0416 136.124 61.0536C136.118 61.0595 136.114 61.0639 136.111 61.0666C136.11 61.068 136.109 61.069 136.108 61.0695C136.108 61.0698 136.108 61.0699 136.108 61.07C136.108 61.07 136.108 61.07 136.108 61.07C136.108 61.07 136.108 61.0699 140.332 65.3307ZM154.806 58.6589C166.002 44.7406 172.833 36.5694 176.847 31.897C178.853 29.5616 180.147 28.1106 180.923 27.2595C181.31 26.8345 181.565 26.5625 181.713 26.4074C181.787 26.33 181.833 26.2825 181.855 26.2603C181.865 26.2492 181.87 26.2446 181.869 26.2458C181.868 26.2464 181.866 26.2485 181.863 26.252C181.861 26.2538 181.859 26.2559 181.856 26.2583C181.855 26.2596 181.854 26.2609 181.852 26.2623C181.852 26.263 181.851 26.2641 181.85 26.2644C181.849 26.2656 181.848 26.2667 177.629 22C173.411 17.7333 173.41 17.7345 173.409 17.7357C173.408 17.7361 173.407 17.7374 173.406 17.7382C173.404 17.7399 173.403 17.7417 173.401 17.7435C173.397 17.7472 173.393 17.7512 173.389 17.7555C173.38 17.764 173.37 17.7737 173.36 17.7846C173.338 17.8064 173.311 17.8333 173.28 17.8656C173.216 17.9303 173.132 18.0175 173.024 18.1313C172.807 18.3586 172.492 18.6952 172.055 19.1748C171.181 20.1331 169.808 21.6757 167.744 24.0776C163.619 28.8797 156.701 37.1576 145.456 51.1375L154.806 58.6589ZM181.542 26.5492C187.517 21.4107 190.624 19.6246 193.724 18.9087C197.107 18.1277 201.155 18.4248 209.787 19.4575L211.213 7.5425C203.128 6.57524 196.846 5.8723 191.025 7.21631C184.922 8.62538 179.952 12.0893 173.717 17.4508L181.542 26.5492ZM140.332 65.3307C146.328 65.1002 146.328 65.0988 146.328 65.0974C146.328 65.0969 146.328 65.0955 146.328 65.0945C146.328 65.0925 146.328 65.0904 146.328 65.0881C146.327 65.0836 146.327 65.0785 146.327 65.073C146.326 65.0618 146.326 65.0486 146.325 65.0335C146.324 65.0031 146.322 64.9648 146.319 64.9188C146.315 64.827 146.307 64.7045 146.297 64.5548C146.276 64.2561 146.242 63.8455 146.188 63.3514C146.082 62.3737 145.891 61.0162 145.548 59.5234C144.964 56.9776 143.573 52.2783 139.824 49.4662L132.623 59.0656C132.528 58.9946 132.734 59.1213 133.058 59.7955C133.365 60.4341 133.637 61.2683 133.852 62.2072C134.063 63.1249 134.188 64.0001 134.259 64.6525C134.294 64.9734 134.315 65.2272 134.326 65.3891C134.332 65.4697 134.335 65.5266 134.336 65.5566C134.337 65.5715 134.338 65.5797 134.338 65.5806C134.338 65.5811 134.338 65.5797 134.337 65.5765C134.337 65.5749 134.337 65.5729 134.337 65.5703C134.337 65.569 134.337 65.5677 134.337 65.5661C134.337 65.5654 134.337 65.5642 134.337 65.5638C134.337 65.5625 134.337 65.5613 140.332 65.3307ZM140.466 50.0237C139.247 48.8041 137.62 48.0011 136.638 47.5512C135.437 47.0012 134.088 46.4975 132.797 46.0746C131.498 45.6488 130.154 45.2711 128.935 44.9931C127.854 44.7463 126.43 44.4722 125.161 44.4722V56.4722C124.998 56.4722 125.312 56.4748 126.266 56.6923C127.082 56.8787 128.069 57.153 129.061 57.4781C130.062 57.8059 130.965 58.1518 131.641 58.4614C131.979 58.6162 132.195 58.7321 132.307 58.7993C132.467 58.8949 132.281 58.8089 131.98 58.5081L140.466 50.0237ZM125.161 44.4722C123.508 44.4722 120.95 44.7855 118.552 45.2566C116.252 45.7085 113.167 46.4792 110.868 47.7566L116.696 58.2461C117.242 57.9428 118.74 57.449 120.865 57.0315C122.892 56.6332 124.601 56.4722 125.161 56.4722V44.4722ZM67.4725 148.074L69.9725 122.074L58.0275 120.926L55.5275 146.926L67.4725 148.074ZM52.5797 158.901C53.062 157.681 54.6573 155.584 56.737 154.098C57.7239 153.393 58.5021 153.06 58.9557 152.95C59.3741 152.849 59.0835 153.025 58.5604 152.731L64.4396 142.269C61.5818 140.663 58.5613 140.7 56.1357 141.286C53.7453 141.864 51.5654 143.045 49.7609 144.334C46.2579 146.837 42.938 150.65 41.4203 154.488L52.5797 158.901ZM104.765 233.735C110.025 232.116 121.593 231.612 131.228 235.553L135.772 224.447C123.407 219.388 108.975 219.884 101.235 222.265L104.765 233.735ZM103.477 74.9534C103.435 74.8816 103.448 74.8622 103.449 74.9179C103.45 74.9687 103.439 75.1398 103.299 75.3694C103.142 75.6264 102.898 75.8273 102.665 75.9231C102.447 76.013 102.496 75.9076 102.997 75.9911L104.97 64.1544C100.09 63.341 95.5053 65.0999 93.0527 69.123C90.8004 72.8174 91.0127 77.4006 93.1113 80.999L103.477 74.9534ZM110.868 47.7566C107.382 49.6936 105.824 53.3182 105.127 55.4117C104.344 57.7604 103.989 60.218 103.989 61.8532H115.989C115.989 61.8564 115.989 61.8316 115.992 61.7765C115.995 61.7229 116 61.6505 116.009 61.5602C116.026 61.378 116.055 61.1481 116.099 60.8843C116.189 60.3467 116.328 59.7557 116.511 59.2057C116.7 58.6382 116.891 58.2545 117.027 58.0436C117.174 57.8165 117.109 58.0168 116.696 58.2461L110.868 47.7566ZM103.989 61.8532C103.989 61.1333 104.164 60.3841 104.524 59.6957C104.871 59.0341 105.306 58.5849 105.646 58.3064C105.977 58.0355 106.26 57.8913 106.406 57.8249C106.558 57.7559 106.655 57.7291 106.672 57.7244C106.691 57.7193 106.63 57.7343 106.512 57.745C106.467 57.7491 106.436 57.7506 106.428 57.7509C106.425 57.751 106.429 57.7508 106.442 57.7505C106.449 57.7504 106.458 57.7503 106.469 57.7502C106.475 57.7501 106.482 57.7501 106.489 57.7501C106.492 57.7501 106.496 57.75 106.5 57.75C106.502 57.75 106.504 57.75 106.506 57.75C106.507 57.75 106.509 57.75 106.509 57.75C106.511 57.75 106.512 57.75 106.512 63.75C106.512 69.75 106.514 69.75 106.515 69.75C106.516 69.75 106.518 69.75 106.519 69.75C106.521 69.75 106.523 69.75 106.526 69.75C106.531 69.75 106.536 69.75 106.541 69.75C106.551 69.7499 106.563 69.7498 106.575 69.7497C106.6 69.7495 106.628 69.7491 106.66 69.7486C106.724 69.7474 106.803 69.7453 106.895 69.7418C107.078 69.7347 107.318 69.7213 107.599 69.6957C108.133 69.6472 108.942 69.5437 109.83 69.3014C110.642 69.0798 111.992 68.6192 113.246 67.5932C114.679 66.4202 115.989 64.4654 115.989 61.8532H103.989ZM69.9087 122.543C72.5283 107.698 81.2821 102.186 88.4828 93.9346L79.4416 86.0443C74.1746 92.0796 61.4717 101.302 58.0913 120.457L69.9087 122.543ZM88.4828 93.9346C91.951 89.9604 95.1908 87.2546 97.506 85.5709C98.6633 84.7292 99.5875 84.1445 100.19 83.7859C100.492 83.6067 100.712 83.4843 100.841 83.4148C100.905 83.38 100.947 83.3586 100.964 83.3498C100.972 83.3455 100.974 83.3443 100.97 83.3463C100.968 83.3473 100.965 83.3491 100.96 83.3516C100.957 83.3529 100.954 83.3544 100.951 83.356C100.949 83.3569 100.947 83.3577 100.945 83.3587C100.945 83.3591 100.943 83.3599 100.943 83.3601C100.941 83.3609 100.94 83.3616 98.2943 77.9762C95.649 72.5908 95.6474 72.5916 95.6458 72.5924C95.6452 72.5926 95.6436 72.5935 95.6425 72.594C95.6402 72.5951 95.6378 72.5963 95.6353 72.5976C95.6303 72.6 95.6248 72.6027 95.619 72.6056C95.6073 72.6114 95.594 72.6181 95.5791 72.6256C95.5492 72.6406 95.5128 72.6591 95.4701 72.6811C95.3846 72.7251 95.2738 72.7832 95.1391 72.8559C94.8698 73.0013 94.5049 73.2054 94.056 73.4723C93.1586 74.0061 91.9242 74.7925 90.448 75.866C87.4964 78.0126 83.5701 81.3135 79.4416 86.0443L88.4828 93.9346ZM86.4121 84.5124L69.4499 76.9251L64.5501 87.8792L81.5123 95.4665L86.4121 84.5124ZM71.8088 85.9904L79.5935 75.5579L69.976 68.3813L62.1912 78.8138L71.8088 85.9904ZM79.6032 68.3943L69.6086 54.9247L59.9718 62.0753L69.9663 75.5449L79.6032 68.3943ZM96.0397 83.5365C102.458 86.1389 109.336 87.6513 114.487 88.5168C117.088 88.9539 119.307 89.2355 120.887 89.4086C121.677 89.4953 122.311 89.5552 122.754 89.5939C122.976 89.6133 123.151 89.6274 123.274 89.637C123.336 89.6418 123.385 89.6454 123.421 89.648C123.439 89.6493 123.454 89.6504 123.465 89.6511C123.47 89.6515 123.475 89.6519 123.479 89.6521C123.481 89.6523 123.483 89.6524 123.484 89.6525C123.485 89.6525 123.486 89.6526 123.486 89.6526C123.487 89.6527 123.488 89.6528 123.896 83.6667C124.305 77.6806 124.305 77.6806 124.306 77.6807C124.306 77.6807 124.307 77.6807 124.307 77.6808C124.308 77.6808 124.309 77.6808 124.309 77.6809C124.309 77.6809 124.309 77.6809 124.308 77.6808C124.306 77.6806 124.3 77.6802 124.291 77.6796C124.274 77.6783 124.243 77.6761 124.2 77.6728C124.115 77.6661 123.979 77.6552 123.798 77.6394C123.435 77.6077 122.891 77.5564 122.195 77.4801C120.801 77.3273 118.812 77.0754 116.475 76.6827C111.748 75.8884 105.826 74.5556 100.549 72.4159L96.0397 83.5365ZM123.896 83.6667C124.324 89.6514 124.324 89.6514 124.324 89.6514C124.325 89.6514 124.325 89.6513 124.325 89.6513C124.326 89.6513 124.327 89.6512 124.328 89.6511C124.331 89.6509 124.334 89.6507 124.339 89.6503C124.348 89.6497 124.362 89.6487 124.379 89.6474C124.415 89.6449 124.466 89.6411 124.534 89.6362C124.668 89.6264 124.864 89.612 125.116 89.5932C125.619 89.5556 126.342 89.5006 127.228 89.4307C128.998 89.2911 131.425 89.0914 134.045 88.8513C139.131 88.3853 145.428 87.727 148.838 87.0088L146.366 75.2663C143.771 75.8127 138.215 76.4189 132.95 76.9014C130.394 77.1355 128.02 77.3309 126.284 77.4679C125.417 77.5363 124.71 77.59 124.222 77.6265C123.977 77.6448 123.788 77.6588 123.66 77.6681C123.596 77.6728 123.547 77.6763 123.515 77.6786C123.499 77.6797 123.487 77.6806 123.48 77.6812C123.476 77.6814 123.473 77.6816 123.471 77.6818C123.47 77.6818 123.47 77.6819 123.469 77.6819C123.469 77.6819 123.469 77.6819 123.469 77.6819C123.469 77.6819 123.469 77.6819 123.896 83.6667ZM117.9 83.4693L115.371 160.303L127.365 160.697L129.893 83.864L117.9 83.4693ZM120.799 166.473C126.365 167.003 130.7 163.949 132.171 163.189C133.143 162.687 133.674 162.522 134.127 162.476C134.519 162.436 135.277 162.44 136.662 163.026L141.338 151.974C138.379 150.723 135.592 150.262 132.901 150.539C130.27 150.809 128.181 151.743 126.661 152.529C123.146 154.345 123.008 154.629 121.937 154.527L120.799 166.473ZM136.662 163.026C138.668 163.874 140.34 165.324 142.048 167.475C143.908 169.82 145.272 172.231 147.386 175.429C149.311 178.343 151.75 181.697 155.19 184.271C158.802 186.973 163.237 188.618 168.779 188.618V176.618C165.824 176.618 163.912 175.81 162.379 174.662C160.673 173.386 159.167 171.492 157.397 168.813C155.815 166.419 153.733 162.895 151.447 160.015C149.007 156.941 145.832 153.876 141.338 151.974L136.662 163.026ZM131.192 235.538C138.079 238.408 144.683 236.596 150.102 232.959C155.358 229.433 160.036 223.899 164.077 217.904C172.21 205.837 178.961 190.069 183.249 178.602L172.01 174.398C167.82 185.601 161.461 200.315 154.127 211.196C150.434 216.675 146.789 220.732 143.416 222.995C140.207 225.148 137.876 225.323 135.808 224.462L131.192 235.538ZM177.629 176.5C183.264 178.562 183.264 178.561 183.264 178.561C183.265 178.561 183.265 178.56 183.265 178.559C183.265 178.558 183.266 178.557 183.266 178.556C183.267 178.553 183.269 178.549 183.27 178.545C183.273 178.537 183.277 178.527 183.281 178.515C183.29 178.49 183.302 178.456 183.318 178.413C183.348 178.328 183.391 178.208 183.444 178.056C183.55 177.752 183.697 177.321 183.873 176.787C184.223 175.721 184.689 174.23 185.156 172.516C186.053 169.229 187.106 164.588 187.106 160.5H175.106C175.106 162.912 174.421 166.271 173.579 169.359C173.177 170.832 172.774 172.122 172.472 173.041C172.322 173.499 172.198 173.861 172.114 174.102C172.072 174.223 172.04 174.313 172.019 174.37C172.009 174.399 172.002 174.419 171.998 174.43C171.996 174.436 171.994 174.44 171.994 174.441C171.994 174.441 171.994 174.442 171.994 174.441C171.994 174.441 171.994 174.44 171.994 174.44C171.994 174.44 171.994 174.439 171.995 174.439C171.995 174.438 171.995 174.438 177.629 176.5ZM55.5 147.5C55.5 148.11 55.4571 148.581 55.3888 149.571C55.3227 150.529 55.259 151.692 55.2918 153.251C55.3561 156.313 55.7869 160.651 57.0913 168.043L68.9087 165.957C67.6543 158.849 67.3351 155.187 67.2891 152.999C67.2667 151.933 67.3078 151.159 67.3603 150.397C67.4106 149.669 67.5 148.64 67.5 147.5H55.5ZM57.0913 168.043C59.4541 181.432 65.3486 198.674 72.9843 212.037C76.7872 218.693 81.2507 224.795 86.2569 228.929C91.2702 233.069 97.7286 235.9 104.765 233.735L101.235 222.265C99.6132 222.764 97.3049 222.49 93.898 219.676C90.4838 216.857 86.8734 212.157 83.4034 206.084C76.4932 193.99 71.0459 178.068 68.9087 165.957L57.0913 168.043ZM168.779 188.618C171.853 188.618 175.616 188.49 178.599 186.171C180.13 184.981 181.06 183.535 181.693 182.297C182.284 181.141 182.792 179.798 183.233 178.644L172.025 174.356C171.511 175.702 171.244 176.373 171.009 176.833C170.815 177.211 170.867 176.982 171.235 176.697C171.625 176.393 171.882 176.401 171.53 176.466C171.098 176.546 170.297 176.618 168.779 176.618V188.618ZM120.883 154.52C119.322 154.646 118.497 154.445 117.995 154.266C117.328 154.027 116.873 153.728 115.551 152.926C114.329 152.186 112.515 151.133 110.033 150.602C107.54 150.069 104.834 150.149 101.714 150.834L104.286 162.555C106.166 162.143 107.091 162.244 107.524 162.337C107.968 162.432 108.374 162.608 109.33 163.188C110.185 163.706 111.865 164.817 113.953 165.564C116.206 166.371 118.755 166.731 121.852 166.48L120.883 154.52ZM100.988 151.042C91.4375 154.441 88.8373 162.028 86.927 166.463C85.9103 168.824 85.1413 170.31 84.0696 171.452C83.137 172.446 81.6666 173.494 78.7178 174.139L81.2822 185.861C86.3334 184.756 90.0505 182.616 92.821 179.663C95.4525 176.858 96.9022 173.638 97.948 171.21C100.163 166.069 101.062 163.753 105.012 162.347L100.988 151.042ZM78.7178 174.139C75.1172 174.926 69.941 171.807 68.9087 165.957L57.0913 168.043C59.0149 178.943 69.4779 188.444 81.2822 185.861L78.7178 174.139Z" fill="#313437"/>
</svg>
