<svg width="256" height="256" viewBox="0 0 256 256" fill="none" xmlns="http://www.w3.org/2000/svg">
<path d="M98.5 228.5L75 191L83 187.5L94.5 177L98.5 166.5L115 162H133L148.5 166.5L164 183.5L179.5 191L167.5 219.5L148.5 235.5L124 231.5L103 235.5L98.5 228.5Z" fill="#4D8CD2"/>
<path d="M130 89L107 84.5L115 65.5L123.5 56L139.5 58.5L151.5 76L154 85.5L130 89Z" fill="#4D8CD2"/>
<path d="M91 183L77.5 191L67.5 172.5V145L77.5 106.5L100 84.5L117 86.5H150.5L163.5 91.5L181.5 117.5L187.5 163L181.5 183.5L170.5 187L163.5 179L144.5 163H124H102L91 183Z" fill="white"/>
<path d="M12 161.694C22.9164 162.874 32.0417 167.198 36.97 156.636C36.97 156.636 47.5 136.5 50.5 133C58 125 69.1124 126.01 70 126.5M70 126.5L67.5 152.5M70 126.5C73 109.5 83.7284 102.133 89.9622 94.9894M104.294 82.9762C102.082 79.1825 104.294 74.1243 109.984 75.0728C109.984 69.3823 113.144 68.75 112.512 68.75M104.294 82.9762C104.294 82.9762 97.559 86.2845 89.9622 94.9894M104.294 82.9762C115.989 87.7183 129.896 88.6667 129.896 88.6667M112.512 68.75L104.294 59.8982C89.9622 40.5 98.6584 32.9051 83.6036 19.5291C68.6036 8.52911 62.5 11.5 49 11.5M112.512 68.75C112.512 68.75 115.989 68.75 115.989 66.8532C115.989 64.9564 116.937 59.582 119.782 58.0013C122.627 56.4207 128.948 55.4722 131.161 55.4722C133.373 55.4722 140.643 57.6852 142.223 59.2659C146.016 62.1111 146.332 70.3307 146.332 70.3307M28.1199 213.541C28.1199 213.541 47.5 212 48.6131 200.263C48.6131 200.263 45 178.5 53 161.694C55 156.636 62.8305 149.876 67.5 152.5M67.5 152.5C67.5 156 66.4412 157.5 69 172M187.106 165.5C193 164 197 168.5 198.5 172.5C201.723 181.094 194.607 198.534 187.106 224.29C185.21 234.09 199.749 238.832 203.542 248M187.106 165.5C187.106 141 181 118.5 178.5 112.5M187.106 165.5C187.106 172 183.629 181.5 183.629 181.5M178.5 112.5C184.73 109.78 194.395 108.163 195.008 110.5L198 121C199.264 124.478 208.283 121 208.283 121M178.5 112.5L170.986 101.312M170.986 101.312C170.986 101.312 180.099 96.1126 183.629 92.1442C187.16 88.1758 187.745 82 189 77.5C191 70.3307 196.42 66.9484 198 66L208.283 59.8982M170.986 101.312C166 95 161.504 90.2474 153.602 86.1376M153.602 86.1376C160.24 80.7632 154.866 76.6534 151.39 76.0212C149.493 74.4405 151.074 71.9114 146.332 70.3307M153.602 86.1376C147.597 87.4021 129.896 88.6667 129.896 88.6667M146.332 70.3307C146.332 70.3307 153.279 63.444 156.131 59.8982C178.572 32 183.629 27 183.629 27C195.839 16.5 199.783 16.5 216.5 18.5M89.9622 94.9894L73 87.4021L80.7847 76.9696L70.7902 63.5M129.896 88.6667L127.368 165.5M127.368 165.5C134.005 166.132 136.314 158.825 145 162.5C158 168 157.784 187.618 174.779 187.618C181.258 187.618 181.717 186.5 183.629 181.5M127.368 165.5C118.052 166.255 119 159.5 109 161.694C95.5 166.5 102 181.5 86 185C78.2975 186.685 70.478 180.375 69 172M183.629 181.5C175.152 204.171 157.411 242.463 139.5 235C128.5 230.5 115.5 231 109 233C91.6835 238.328 73.5 197.5 69 172" stroke="#313437" stroke-width="12" stroke-linecap="round" stroke-linejoin="round"/>
</svg>
