<svg width="256" height="256" viewBox="0 0 256 256" fill="none" xmlns="http://www.w3.org/2000/svg">
<path d="M127 88L107 81.5L114 69L119 60.5L130.5 56L143 64L153 78.5L154 87L127 88Z" fill="#4D8CD2"/>
<path d="M89.5 222L75.5 198.5L78.5 191.5L92 181L99 166.5L109 162.5H126.5H142.5L157 179.5L175.5 191.5L148 238L126.5 232L109 236L89.5 222Z" fill="#4D8CD2"/>
<path d="M89.5 185H77L70 178.875V156.927L77 116.604L103.5 87L126 91.5938V165.094H103.5L89.5 185Z" fill="white"/>
<path d="M130 160L134.5 90H155L177.5 111.5L188 149L183 187H169L148 160H130Z" fill="white"/>
<path d="M12 161.694C22.9164 162.874 32.0417 167.198 36.97 156.636C36.97 156.636 47.5 136.5 50.5 133C58 125 69.1124 126.01 70 126.5M70 126.5L67.3133 152.526M70 126.5C73 109.5 83.7284 102.133 89.9622 94.9894M104.294 82.9762C102.082 79.1825 104.294 74.1243 109.984 75.0728C109.984 69.3823 113.144 68.75 112.512 68.75M104.294 82.9762C104.294 82.9762 97.559 86.2845 89.9622 94.9894M104.294 82.9762C115.989 87.7183 129.896 88.6667 129.896 88.6667M112.512 68.75L104.294 59.8982C89.9622 40.5 98.6584 32.9051 83.6036 19.5291C68.6036 8.52911 62.5 11.5 49 11.5M112.512 68.75C112.512 68.75 115.989 68.75 115.989 66.8532C115.989 64.9564 116.937 59.582 119.782 58.0013C122.627 56.4207 128.948 55.4722 131.161 55.4722C133.373 55.4722 140.643 57.6852 142.223 59.2659C146.016 62.1111 146.332 70.3307 146.332 70.3307M28.1199 213.541C28.1199 213.541 47.5 212 48.6131 200.263C48.6131 200.263 45 178.5 53 161.694C55 156.636 62.6439 149.902 67.3133 152.526M67.3133 152.526C66 166.5 69.477 175.5 72 186.5M186.79 169.598C191.215 169.282 196.272 174.972 196.272 174.972C203.614 182.577 194.607 198.534 187.106 224.29C185.21 234.09 199.749 238.832 203.542 248M186.79 169.598C189.319 134.823 179.837 118.7 178.572 112.061M186.79 169.598C186.258 172.648 185.162 176.364 183.629 180.463M178.572 112.061C184.802 109.34 194.395 108.163 195.008 110.5L198 121C199.264 124.478 208.283 121 208.283 121M178.572 112.061L170.986 101.312M170.986 101.312C170.986 101.312 180.099 96.1126 183.629 92.1442C187.16 88.1758 187.745 82 189 77.5C191 70.3307 196.42 66.9484 198 66L208.283 59.8982M170.986 101.312C164.111 95.7034 161.504 90.2474 153.602 86.1376M153.602 86.1376C160.24 80.7632 154.866 76.6534 151.39 76.0212C149.493 74.4405 151.074 71.9114 146.332 70.3307M153.602 86.1376C147.597 87.4021 129.896 88.6667 129.896 88.6667M146.332 70.3307C146.332 70.3307 153.279 63.444 156.131 59.8982C178.572 32 183.629 27 183.629 27C195.839 16.5 199.783 16.5 216.5 18.5M89.9622 94.9894L73 87.4021L80.7847 76.9696L70.7902 63.5M129.896 88.6667L127.368 165.5M127.368 165.5C134.005 166.132 144.575 156.832 147.597 161.694C154.866 173.392 165.297 189.831 174.779 187.618C178.888 186.659 183.629 180.463 183.629 180.463M127.368 165.5C118.052 166.255 113.911 159.572 109 161.694C97.6392 166.605 93.0383 182.311 88.5 186.5C82 192.5 76.5 190.5 72 186.5M183.629 180.463C175.152 203.134 157 243.477 139.379 235.355C118 225.5 113.545 241.377 103.5 233C86.4693 218.796 79.6822 219.994 72 186.5" stroke="#313437" stroke-width="12" stroke-linecap="round" stroke-linejoin="round"/>
</svg>
