<svg width="256" height="256" viewBox="0 0 256 256" fill="none" xmlns="http://www.w3.org/2000/svg">
<path d="M128 127.799L161.271 81" stroke="#D34A4A" stroke-width="12" stroke-linecap="round" stroke-linejoin="round"/>
<path d="M128 127.799H65" stroke="#313437" stroke-width="12" stroke-linecap="round" stroke-linejoin="round"/>
<path d="M128 127.799L149.832 162.704" stroke="#313437" stroke-width="12" stroke-linecap="round" stroke-linejoin="round"/>
<circle cx="128" cy="127.799" r="12" fill="white" stroke="#313437" stroke-width="12"/>
<path d="M161.01 220.061C148.986 224.461 136.213 226.45 123.42 225.915C110.628 225.379 98.0658 222.329 86.452 216.938C74.8381 211.548 64.3997 203.922 55.7327 194.498C47.0658 185.073 40.34 174.034 35.9394 162.01C31.5388 149.986 29.5496 137.213 30.0854 124.42C30.6211 111.628 33.6713 99.0658 39.0618 87.452C44.4523 75.8381 52.0776 65.3997 61.5022 56.7327C70.9268 48.0658 81.9662 41.34 93.9901 36.9394C106.014 32.5389 118.787 30.5497 131.58 31.0854C144.372 31.6211 156.934 34.6713 168.548 40.0619C180.162 45.4524 190.6 53.0776 199.267 62.5022C207.934 71.9268 214.66 82.9662 219.061 94.9901C223.461 107.014 225.45 119.787 224.915 132.58C224.379 145.372 221.329 157.934 215.938 169.548C210.548 181.162 202.922 191.6 193.498 200.267C184.073 208.934 173.034 215.66 161.01 220.061L161.01 220.061Z" stroke="#313437" stroke-width="12" stroke-linecap="round" stroke-linejoin="round"/>
</svg>
