<svg xmlns="http://www.w3.org/2000/svg"  viewBox="0 0 128 128" width="64px" height="64px"><path fill="#fff" d="M64 14A50 50 0 1 0 64 114A50 50 0 1 0 64 14Z"/><path fill="none" stroke="#444b54" stroke-linecap="round" stroke-linejoin="round" stroke-miterlimit="10" stroke-width="6" d="M64 14A50 50 0 1 0 64 114A50 50 0 1 0 64 14Z"/><path fill="none" stroke="#444b54" stroke-linecap="round" stroke-linejoin="round" stroke-miterlimit="10" stroke-width="6" d="M81.7 81.7L64 64 88.7 39.3"/><path fill="none" stroke="#ff5576" stroke-linecap="round" stroke-linejoin="round" stroke-miterlimit="10" stroke-width="6" d="M64 64L29 64"/><path fill="#fff" d="M64 57A7 7 0 1 0 64 71A7 7 0 1 0 64 57Z"/><path fill="none" stroke="#444b54" stroke-linecap="round" stroke-linejoin="round" stroke-miterlimit="10" stroke-width="6" d="M64 57A7 7 0 1 0 64 71A7 7 0 1 0 64 57Z"/></svg>