<svg width="256" height="256" viewBox="0 0 256 256" fill="none" xmlns="http://www.w3.org/2000/svg">
<circle cx="70.3224" cy="186.762" r="41.0404" fill="#7D8285" stroke="#313437" stroke-width="12"/>
<path d="M225.367 186.762C225.367 209.428 206.992 227.803 184.326 227.803C161.66 227.803 143.286 209.428 143.286 186.762C143.286 164.096 161.66 145.722 184.326 145.722C206.992 145.722 225.367 164.096 225.367 186.762Z" fill="#7D8285" stroke="#313437" stroke-width="12"/>
<path d="M149 175C142.025 172.359 134.55 171 127 171C119.45 171 111.975 172.359 105 175" stroke="#313437" stroke-width="12"/>
<path d="M245 122H10L73.3478 101.876L91.7391 32L115.239 45.4161L164.283 32L181.652 101.876L245 122Z" fill="#313437" stroke="#313437" stroke-width="12" stroke-linejoin="round"/>
</svg>
