<svg width="256" height="256" viewBox="0 0 256 256" fill="none" xmlns="http://www.w3.org/2000/svg">
<path d="M222.933 185.696C225.803 184.039 226.786 180.37 225.129 177.5C223.472 174.63 219.803 173.647 216.933 175.304L222.933 185.696ZM129 233L126 238.196C127.856 239.268 130.144 239.268 132 238.196L129 233ZM38.0673 180.5L32.0673 180.5C32.0673 182.644 33.2109 184.624 35.0673 185.696L38.0673 180.5ZM38.0674 117.5L42.2157 113.165C39.8619 110.913 36.1408 110.95 33.8328 113.249L38.0674 117.5ZM4.83275 142.14C2.48519 144.479 2.47803 148.278 4.81675 150.625C7.15547 152.973 10.9545 152.98 13.302 150.641L4.83275 142.14ZM64.1101 150.726C66.5042 153.017 70.3023 152.933 72.5933 150.539C74.8843 148.145 74.8007 144.347 72.4066 142.056L64.1101 150.726ZM216.933 175.304L126 227.804L132 238.196L222.933 185.696L216.933 175.304ZM132 227.804L41.0673 175.304L35.0673 185.696L126 238.196L132 227.804ZM44.0673 180.5L44.0674 117.5L32.0674 117.5L32.0673 180.5L44.0673 180.5ZM13.302 150.641L42.302 121.751L33.8328 113.249L4.83275 142.14L13.302 150.641ZM33.9191 121.835L64.1101 150.726L72.4066 142.056L42.2157 113.165L33.9191 121.835Z" fill="#313437"/>
<path d="M34.9998 70.3038C32.13 71.9607 31.1468 75.6302 32.8036 78.5C34.4605 81.3697 38.13 82.353 40.9998 80.6962L34.9998 70.3038ZM128.933 23L131.933 17.8039C130.076 16.7321 127.789 16.7321 125.933 17.8039L128.933 23ZM219.865 75.5L225.865 75.5C225.865 73.3564 224.722 71.3756 222.865 70.3038L219.865 75.5ZM219.865 138.5L215.717 142.835C218.071 145.087 221.792 145.05 224.1 142.751L219.865 138.5ZM253.1 113.86C255.448 111.521 255.455 107.722 253.116 105.375C250.777 103.027 246.978 103.02 244.631 105.359L253.1 113.86ZM193.823 105.274C191.429 102.983 187.63 103.067 185.339 105.461C183.048 107.855 183.132 111.653 185.526 113.944L193.823 105.274ZM40.9998 80.6962L131.933 28.1962L125.933 17.8039L34.9998 70.3038L40.9998 80.6962ZM125.933 28.1962L216.865 80.6961L222.865 70.3038L131.933 17.8039L125.933 28.1962ZM213.865 75.5L213.865 138.5L225.865 138.5L225.865 75.5L213.865 75.5ZM244.631 105.359L215.631 134.249L224.1 142.751L253.1 113.86L244.631 105.359ZM224.014 134.165L193.823 105.274L185.526 113.944L215.717 142.835L224.014 134.165Z" fill="#4D8CD2"/>
</svg>
