<svg width="17" height="14" viewBox="0 0 17 14" fill="none" xmlns="http://www.w3.org/2000/svg">
<g clip-path="url(#clip0_94_51)">
<path d="M1.03077 0.139607C0.754524 -0.0846119 0.353431 -0.0326588 0.135618 0.251716C-0.0821944 0.536091 -0.0317257 0.948982 0.244524 1.1732L15.9695 13.8607C16.2458 14.0849 16.6469 14.033 16.8647 13.7486C17.0825 13.4642 17.032 13.0513 16.7558 12.8271L13.9614 10.574C15.0133 9.46383 15.7251 8.21968 16.0837 7.33648C16.1714 7.12047 16.1714 6.87984 16.0837 6.66383C15.688 5.68765 14.8566 4.26578 13.6134 3.07906C12.365 1.8814 10.6464 0.875154 8.50015 0.875154C6.68859 0.875154 5.17984 1.59429 4.00312 2.53765L1.03077 0.139607ZM5.92624 4.08804C6.60359 3.45094 7.50937 3.06265 8.50015 3.06265C10.6119 3.06265 12.3251 4.82633 12.3251 7.00015C12.3251 7.68101 12.1578 8.32086 11.863 8.87867L10.8376 8.05289C11.0608 7.52515 11.1192 6.92086 10.9651 6.32203C10.6703 5.18726 9.69546 4.42437 8.61171 4.37789C8.45765 4.37242 8.36734 4.54469 8.41515 4.69781C8.47093 4.87281 8.5028 5.05875 8.5028 5.25289C8.5028 5.53179 8.43906 5.79429 8.32749 6.02672L5.9289 4.09078L5.92624 4.08804ZM9.90796 10.6615C9.47234 10.8392 8.99687 10.9377 8.50015 10.9377C6.38843 10.9377 4.67515 9.17398 4.67515 7.00015C4.67515 6.81148 4.68843 6.62828 4.71234 6.44781L2.20749 4.41617C1.60187 5.22828 1.1689 6.03765 0.916556 6.66383C0.828899 6.87984 0.828899 7.12047 0.916556 7.33648C1.31234 8.31265 2.14374 9.73453 3.38687 10.9212C4.63531 12.1189 6.3539 13.1252 8.50015 13.1252C9.76984 13.1252 10.8881 12.7724 11.8523 12.2365L9.90796 10.6615Z" fill="#1A2536"/>
</g>
<defs>
<clipPath id="clip0_94_51">
<rect width="17" height="14" rx="3" fill="white"/>
</clipPath>
</defs>
</svg>
