<svg width="13" height="13" viewBox="0 0 13 13" fill="none" xmlns="http://www.w3.org/2000/svg">
<g clip-path="url(#clip0_94_46)">
<path d="M13 6.64727C13 10.24 10.4186 12.7969 6.60656 12.7969C2.95164 12.7969 0 9.98359 0 6.5C0 3.01641 2.95164 0.203125 6.60656 0.203125C8.38607 0.203125 9.8832 0.825195 11.0367 1.85098L9.23852 3.49883C6.88627 1.33555 2.51209 2.96055 2.51209 6.5C2.51209 8.69629 4.35287 10.4762 6.60656 10.4762C9.22254 10.4762 10.2029 8.68867 10.3574 7.76191H6.60656V5.59609H12.8961C12.9574 5.91855 13 6.22832 13 6.64727Z" fill="#1A2536"/>
</g>
<defs>
<clipPath id="clip0_94_46">
<rect width="13" height="13" rx="3" fill="white"/>
</clipPath>
</defs>
</svg>
