<svg width="33" height="33" viewBox="0 0 33 33" fill="none" xmlns="http://www.w3.org/2000/svg">
<path d="M28.7374 23.9374C29.1074 23.7238 29.2341 23.2508 29.0205 22.8808C28.8069 22.5109 28.334 22.3842 27.964 22.5978L28.7374 23.9374ZM16.6289 30.0351L16.2422 30.7049C16.4814 30.8431 16.7764 30.8431 17.0156 30.7049L16.6289 30.0351ZM4.90709 23.2676H4.13366C4.13366 23.5439 4.28107 23.7992 4.52037 23.9374L4.90709 23.2676ZM4.90711 15.1465L5.44185 14.5877C5.13843 14.2974 4.65876 14.3021 4.36124 14.5985L4.90711 15.1465ZM0.622952 18.3227C0.320337 18.6242 0.319414 19.114 0.62089 19.4165C0.922366 19.7192 1.41208 19.7201 1.71469 19.4186L0.622952 18.3227ZM8.26417 19.4295C8.57279 19.7248 9.06239 19.714 9.35771 19.4054C9.65304 19.0968 9.64226 18.6072 9.33364 18.3119L8.26417 19.4295ZM27.964 22.5978L16.2422 29.3653L17.0156 30.7049L28.7374 23.9374L27.964 22.5978ZM17.0156 29.3653L5.29381 22.5978L4.52037 23.9374L16.2422 30.7049L17.0156 29.3653ZM5.68053 23.2676L5.68054 15.1465H4.13367L4.13366 23.2676H5.68053ZM1.71469 19.4186L5.45297 15.6945L4.36124 14.5985L0.622952 18.3227L1.71469 19.4186ZM4.37236 15.7053L8.26417 19.4295L9.33364 18.3119L5.44185 14.5877L4.37236 15.7053Z" fill="#DFEBFF"/>
<path d="M4.51173 9.06259C4.14179 9.27618 4.01505 9.7492 4.22862 10.1191C4.44221 10.4891 4.91523 10.6158 5.28517 10.4022L4.51173 9.06259ZM16.6203 2.96484L17.007 2.29503C16.7676 2.15687 16.4728 2.15687 16.2336 2.29503L16.6203 2.96484ZM28.342 9.73242H29.1154C29.1154 9.45609 28.9681 9.20075 28.7287 9.06259L28.342 9.73242ZM28.342 17.8535L27.8073 18.4123C28.1108 18.7026 28.5904 18.6978 28.8879 18.4015L28.342 17.8535ZM32.6262 14.6773C32.9289 14.3757 32.9298 13.886 32.6283 13.5835C32.3268 13.2808 31.837 13.2799 31.5345 13.5814L32.6262 14.6773ZM24.985 13.5705C24.6764 13.2751 24.1867 13.286 23.8914 13.5946C23.5961 13.9032 23.6069 14.3928 23.9155 14.6881L24.985 13.5705ZM5.28517 10.4022L17.007 3.63466L16.2336 2.29503L4.51173 9.06259L5.28517 10.4022ZM16.2336 3.63466L27.9553 10.4022L28.7287 9.06259L17.007 2.29503L16.2336 3.63466ZM27.5686 9.73242V17.8535H29.1154V9.73242H27.5686ZM31.5345 13.5814L27.7962 17.3055L28.8879 18.4015L32.6262 14.6773L31.5345 13.5814ZM28.8768 17.2947L24.985 13.5705L23.9155 14.6881L27.8073 18.4123L28.8768 17.2947Z" fill="#3081FF"/>
</svg>
