<svg width="32" height="32" viewBox="0 0 32 32" fill="none" xmlns="http://www.w3.org/2000/svg">
<path d="M16 0.984617C24.2928 0.984616 31.0154 7.70723 31.0154 16C31.0154 24.2928 24.2928 31.0154 16 31.0154C7.70723 31.0154 0.984615 24.2928 0.984615 16C0.984614 7.70724 7.70723 0.984617 16 0.984617Z" fill="white" stroke="#313437" stroke-width="1.96923" stroke-linecap="round" stroke-linejoin="round"/>
<path d="M16.0821 16.049L21.5419 8.36923" stroke="#D34A4A" stroke-width="1.96923" stroke-linecap="round" stroke-linejoin="round"/>
<path d="M16.082 16.049H5.74357" stroke="#313437" stroke-width="1.96923" stroke-linecap="round" stroke-linejoin="round"/>
<path d="M16.082 16.049L19.6648 21.777" stroke="#44494F" stroke-width="1.96923" stroke-linecap="round" stroke-linejoin="round"/>
<path d="M18.0513 16.049C18.0513 17.1366 17.1696 18.0183 16.082 18.0183C14.9944 18.0183 14.1128 17.1366 14.1128 16.049C14.1128 14.9615 14.9944 14.0798 16.082 14.0798C17.1696 14.0798 18.0513 14.9615 18.0513 16.049Z" fill="white" stroke="#313437" stroke-width="1.96923"/>
</svg>
