<svg width="256" height="256" viewBox="0 0 256 256" fill="none" xmlns="http://www.w3.org/2000/svg">
<path d="M128 16L224 82L128 141L32 82L128 16Z" fill="white"/>
<path d="M224 179.022L128 240L32 179.022V82L128 141L224 82V179.022Z" fill="#CECECE"/>
<path d="M32 179.022V82L128 16L224 82V179.022L128 240L32 179.022Z" stroke="#313437" stroke-width="12" stroke-linejoin="round"/>
<path d="M182.503 151.584C186.748 154.668 187.32 161.117 183.78 165.989C180.241 170.86 173.931 172.31 169.686 169.226C165.441 166.142 164.869 159.693 168.409 154.821C171.948 149.949 178.258 148.5 182.503 151.584Z" fill="#313437"/>
<path d="M159.503 187.584C163.748 190.668 164.32 197.117 160.78 201.989C157.241 206.86 150.931 208.31 146.686 205.226C142.441 202.142 141.869 195.693 145.409 190.821C148.948 185.949 155.258 184.5 159.503 187.584Z" fill="#313437"/>
<path d="M102.503 198.226C106.748 195.142 107.32 188.693 103.78 183.821C100.241 178.949 93.9305 177.5 89.6858 180.584C85.4411 183.668 84.8694 190.117 88.4088 194.989C91.9482 199.861 98.2585 201.31 102.503 198.226Z" fill="#313437"/>
<path d="M71.5032 148.226C75.7479 145.142 76.3196 138.693 72.7802 133.821C69.2408 128.949 62.9305 127.5 58.6858 130.584C54.4411 133.668 53.8694 140.117 57.4088 144.989C60.9482 149.861 67.2585 151.31 71.5032 148.226Z" fill="#313437"/>
<path d="M203.503 115.584C207.748 118.668 208.32 125.117 204.78 129.989C201.241 134.86 194.931 136.31 190.686 133.226C186.441 130.142 185.869 123.693 189.409 118.821C192.948 113.949 199.258 112.5 203.503 115.584Z" fill="#313437"/>
<path d="M144 82C144 88.6274 136.837 94 128 94C119.164 94 112 88.6274 112 82C112 75.3726 119.164 70 128 70C136.837 70 144 75.3726 144 82Z" fill="#DB4343"/>
</svg>
