<svg width="14" height="14" viewBox="0 0 14 14" fill="none" xmlns="http://www.w3.org/2000/svg">
<path fill-rule="evenodd" clip-rule="evenodd" d="M12.5672 9.0541C12.9268 8.8861 13.3554 9.2081 13.2054 9.58609C12.1818 12.1761 9.72578 14 6.85791 14C3.07009 14 0 10.8181 0 6.89269C0 3.58793 2.17664 0.80971 5.12466 0.0140458C5.50704 -0.0886205 5.7578 0.393603 5.54896 0.742043C5.00322 1.65124 4.71395 2.7062 4.71507 3.78315C4.71507 6.97281 7.20938 9.55809 10.2868 9.55809C11.0717 9.55949 11.8484 9.38786 12.5672 9.0541ZM8.67858 0.708617C8.41897 0.296402 8.88374 -0.195155 9.27351 0.0801778L9.96842 0.570176C10.2502 0.768948 10.5813 0.87503 10.9199 0.87503C11.2586 0.87503 11.5897 0.768948 11.8714 0.570176L12.5656 0.0801778C12.9561 -0.195155 13.4209 0.296402 13.1606 0.708617L12.6973 1.44361C12.5093 1.74164 12.409 2.09183 12.409 2.45006C12.409 2.80828 12.5093 3.15849 12.6973 3.4565L13.1606 4.1915C13.4209 4.60372 12.9561 5.09527 12.5664 4.81994L11.8714 4.32994C11.5897 4.13117 11.2586 4.02509 10.9199 4.02509C10.5813 4.02509 10.2502 4.13117 9.96842 4.32994L9.27421 4.81994C8.88445 5.09527 8.41897 4.60372 8.67858 4.1915L9.14185 3.4565C9.32981 3.15849 9.43005 2.80828 9.43005 2.45006C9.43005 2.09183 9.32981 1.74164 9.14185 1.44361L8.67858 0.708617Z" fill="#1A2536"/>
</svg>
