<svg width="14" height="14" viewBox="0 0 14 14" fill="none" xmlns="http://www.w3.org/2000/svg">
<path fill-rule="evenodd" clip-rule="evenodd" d="M7.44997 0.186389C7.33069 0.0670456 7.1688 0 7.00002 0C6.83125 0 6.66938 0.0670456 6.55004 0.186389C6.4307 0.30573 6.36366 0.46759 6.36366 0.636361V1.27272C6.36366 1.4415 6.4307 1.60336 6.55004 1.7227C6.66938 1.84204 6.83125 1.90909 7.00002 1.90909C7.1688 1.90909 7.33069 1.84204 7.44997 1.7227C7.56933 1.60336 7.63637 1.4415 7.63637 1.27272V0.636361C7.63637 0.46759 7.56933 0.30573 7.44997 0.186389ZM1.90908 1.27288C1.74034 1.27288 1.57851 1.3399 1.45918 1.4592C1.33987 1.57853 1.27286 1.74037 1.27286 1.90911C1.27286 2.07785 1.33987 2.23968 1.45918 2.35901L2.41373 3.31355C2.53374 3.42947 2.69449 3.49362 2.86134 3.49217C3.02819 3.49072 3.1878 3.42379 3.30579 3.3058C3.42377 3.18782 3.49071 3.02822 3.49215 2.86136C3.4936 2.69451 3.42946 2.53376 3.31354 2.41374L2.359 1.4592C2.23966 1.3399 2.07782 1.27288 1.90908 1.27288ZM12.7272 1.90911C12.7272 1.74037 12.6601 1.57853 12.5408 1.4592C12.4215 1.3399 12.2597 1.27288 12.0909 1.27288C11.9222 1.27288 11.7604 1.3399 11.641 1.4592L10.6865 2.41374C10.6257 2.47244 10.5772 2.54267 10.5438 2.6203C10.5105 2.69794 10.493 2.78145 10.4922 2.86594C10.4914 2.95044 10.5076 3.03423 10.5396 3.11244C10.5716 3.19065 10.6188 3.2617 10.6785 3.32144C10.7383 3.3812 10.8094 3.42845 10.8876 3.46045C10.9658 3.49244 11.0496 3.50854 11.1341 3.50781C11.2186 3.50708 11.3021 3.48952 11.3797 3.45617C11.4574 3.42282 11.5276 3.37434 11.5863 3.31356L12.5408 2.35901C12.6601 2.23968 12.7272 2.07785 12.7272 1.90911ZM0.186387 6.55002C0.0670452 6.66936 0 6.83122 0 6.99999C0 7.16876 0.0670452 7.33065 0.186387 7.44993C0.305728 7.56929 0.467589 7.63633 0.636368 7.63633H1.27273C1.4415 7.63633 1.60336 7.56929 1.72271 7.44993C1.84205 7.33065 1.90909 7.16876 1.90909 6.99999C1.90909 6.83122 1.84205 6.66936 1.72271 6.55002C1.60336 6.43068 1.4415 6.36363 1.27273 6.36363H0.636368C0.467589 6.36363 0.305728 6.43068 0.186387 6.55002ZM12.2773 6.55002C12.1579 6.66936 12.0909 6.83122 12.0909 6.99999C12.0909 7.16876 12.1579 7.33065 12.2773 7.44993C12.3967 7.56929 12.5585 7.63633 12.7273 7.63633H13.3637C13.5324 7.63633 13.6943 7.56929 13.8137 7.44993C13.9329 7.33065 14 7.16876 14 6.99999C14 6.83122 13.9329 6.66936 13.8137 6.55002C13.6943 6.43068 13.5324 6.36363 13.3637 6.36363H12.7273C12.5585 6.36363 12.3967 6.43068 12.2773 6.55002ZM3.49987 11.1364C3.49987 10.9676 3.43285 10.8058 3.31355 10.6865C3.19422 10.5672 3.03238 10.5001 2.86364 10.5001C2.6949 10.5001 2.53307 10.5672 2.41373 10.6865L1.45919 11.641C1.34327 11.761 1.27912 11.9218 1.28057 12.0886C1.28202 12.2555 1.34895 12.4151 1.46694 12.5331C1.58492 12.6511 1.74453 12.718 1.91138 12.7194C2.07824 12.7209 2.23898 12.6567 2.359 12.5408L3.31355 11.5863C3.43285 11.467 3.49987 11.3051 3.49987 11.1364ZM11.1363 10.5001C10.9677 10.5001 10.8058 10.5672 10.6865 10.6865C10.5672 10.8058 10.5002 10.9676 10.5002 11.1364C10.5002 11.3051 10.5672 11.467 10.6865 11.5863L11.641 12.5408C11.761 12.6567 11.9217 12.7209 12.0886 12.7194C12.2555 12.718 12.4151 12.6511 12.5331 12.5331C12.6511 12.4151 12.718 12.2555 12.7194 12.0886C12.7209 11.9218 12.6567 11.761 12.5408 11.641L11.5863 10.6865C11.4669 10.5672 11.3051 10.5001 11.1363 10.5001ZM7.44998 12.2773C7.3307 12.158 7.1688 12.0909 7.00003 12.0909C6.83125 12.0909 6.66939 12.158 6.55004 12.2773C6.4307 12.3966 6.36366 12.5585 6.36366 12.7273V13.3636C6.36366 13.5324 6.4307 13.6943 6.55004 13.8136C6.66939 13.933 6.83125 14 7.00003 14C7.1688 14 7.3307 13.933 7.44998 13.8136C7.56933 13.6943 7.63638 13.5324 7.63638 13.3636V12.7273C7.63638 12.5585 7.56933 12.3966 7.44998 12.2773ZM4.75011 4.75012C5.34682 4.15341 6.15613 3.81819 7.00001 3.81819C7.84384 3.81819 8.65322 4.15341 9.24993 4.75012C9.84663 5.34682 10.1818 6.15613 10.1818 6.99999C10.1818 7.84389 9.84663 8.65319 9.24993 9.2499C8.65322 9.8466 7.84384 10.1818 7.00001 10.1818C6.15613 10.1818 5.34682 9.8466 4.75011 9.2499C4.15341 8.65319 3.81818 7.84389 3.81818 6.99999C3.81818 6.15613 4.15341 5.34682 4.75011 4.75012Z" fill="#1A2536"/>
</svg>
