<svg width="29" height="32" viewBox="0 0 29 32" fill="none" xmlns="http://www.w3.org/2000/svg">
<g clip-path="url(#clip0_100_168)">
<path d="M14.0606 16C16.1915 16 18.2352 15.1571 19.7419 13.6569C21.2487 12.1566 22.0952 10.1217 22.0952 8C22.0952 5.87827 21.2487 3.84344 19.7419 2.34315C18.2352 0.842855 16.1915 0 14.0606 0C11.9297 0 9.88605 0.842855 8.37926 2.34315C6.87248 3.84344 6.02597 5.87827 6.02597 8C6.02597 10.1217 6.87248 12.1566 8.37926 13.6569C9.88605 15.1571 11.9297 16 14.0606 16ZM11.192 19C5.00909 19 0 23.9875 0 30.1437C0 31.1687 0.834849 32 1.86429 32H26.2569C27.2864 32 28.1212 31.1687 28.1212 30.1437C28.1212 23.9875 23.1121 19 16.9292 19H11.192Z" fill="#DFEBFF"/>
</g>
<defs>
<clipPath id="clip0_100_168">
<rect width="28.1212" height="32" fill="white"/>
</clipPath>
</defs>
</svg>
