<svg width="33" height="36" viewBox="0 0 33 36" fill="none" xmlns="http://www.w3.org/2000/svg">
<path fill-rule="evenodd" clip-rule="evenodd" d="M15.2109 27.1693H12.6384V29.695H15.3083V30.8316H18.0952V18.3655C19.5648 18.0432 20.8756 17.2748 21.8186 16.1828C22.7617 15.0907 23.2827 13.7379 23.2986 12.3399C23.2955 11.1727 22.935 10.0304 22.2587 9.04535C21.5824 8.06033 20.6182 7.27308 19.478 6.77498C18.3379 6.27688 17.0684 6.08837 15.8172 6.23134C14.5659 6.3743 13.3841 6.84287 12.4089 7.58265C11.4338 8.32244 10.7053 9.30309 10.308 10.4108C9.91077 11.5184 9.86105 12.7077 10.1646 13.8405C10.4682 14.9732 11.1126 16.0031 12.0231 16.8104C12.9336 17.6177 14.0727 18.1695 15.3083 18.4015V22.2262H11.1963V24.7519H15.2109V27.1693ZM16.5361 0L32.5361 6.16993V16.3269C32.5361 25.4555 25.7152 34.0068 16.5361 36.1716C7.35706 34.097 0.53611 25.5457 0.53611 16.4171V6.16993L16.5361 0ZM16.5361 9.02036C17.3865 9.01695 18.2117 9.28748 18.8702 9.78556C19.5287 10.2836 19.9795 10.9783 20.1454 11.7504C20.3113 12.5224 20.1819 13.3239 19.7794 14.0173C19.3769 14.7108 18.7263 15.253 17.9393 15.5511C17.4391 15.7405 16.8999 15.8252 16.3602 15.799C15.8205 15.7728 15.2938 15.6364 14.8178 15.3996C14.3418 15.1629 13.9282 14.8315 13.6068 14.4294C13.2853 14.0272 13.064 13.5643 12.9585 13.0736C12.8531 12.583 12.8663 12.0768 12.997 11.5914C13.1278 11.106 13.3729 10.6534 13.7148 10.266C14.0567 9.87861 14.487 9.56604 14.9748 9.35069C15.4625 9.13533 15.9957 9.02253 16.5361 9.02036Z" fill="#669DF6"/>
<path fill-rule="evenodd" clip-rule="evenodd" d="M16.5361 30.8316H17.9978V18.3655C19.4674 18.0432 20.7782 17.2748 21.7212 16.1828C22.6642 15.0907 23.1852 13.7379 23.2012 12.3399C23.2012 10.7035 22.499 9.13414 21.249 7.97706C19.9991 6.81997 18.3038 6.16993 16.5361 6.16993V0L32.5361 6.16993V16.3269C32.5361 25.4555 25.7152 34.0068 16.5361 36.1716V30.8316ZM16.5361 9.02036C17.3865 9.01695 18.2117 9.28748 18.8702 9.78556C19.5287 10.2836 19.9795 10.9783 20.1454 11.7504C20.3113 12.5224 20.1819 13.3239 19.7794 14.0173C19.3769 14.7108 18.7264 15.253 17.9393 15.5511C17.5196 15.7891 17.0236 15.8847 16.5361 15.8217V9.02036Z" fill="#4285F4"/>
</svg>
